<?xml version="1.0" encoding="utf-8"?>
<svg version="1.1" id="Layer_1" xmlns:sketch="http://www.bohemiancoding.com/sketch/ns"
	 xmlns="http://www.w3.org/2000/svg" xmlns:xlink="http://www.w3.org/1999/xlink" x="0px" y="0px" width="113px" height="113px"
	 viewBox="0 0 113 113" enable-background="new 0 0 113 113" xml:space="preserve">
<title>Instagram_hv</title>
<desc>Created with Sketch.</desc>
<g id="Page-1" sketch:type="MSPage">
	<g id="Instagram_hv" transform="translate(0.500000, 0.630510)" sketch:type="MSLayerGroup">
		<path id="Fill-1397" sketch:type="MSShapeGroup" fill="#517FA4" d="M112,56c0,30.926-25.084,56-56,56C25.083,112,0,86.926,0,56
			C0,25.069,25.083,0,56,0C86.916,0,112,25.069,112,56"/>
		<path id="Fill-1398" sketch:type="MSShapeGroup" fill="#FFFFFF" d="M84.187,77.473c0,3.701-3.01,6.709-6.72,6.709H34.533
			c-3.71,0-6.72-3.008-6.72-6.709V48.818h10.453c-0.91,2.219-1.4,4.644-1.4,7.182c0,10.553,8.586,19.141,19.133,19.141
			S75.133,66.553,75.133,56c0-2.539-0.513-4.963-1.399-7.182h10.453V77.473L84.187,77.473z M46.013,48.818
			c2.24-3.103,5.88-5.135,9.987-5.135s7.746,2.032,9.986,5.135c1.471,2.023,2.334,4.503,2.334,7.182
			c0,6.79-5.53,12.318-12.32,12.318S43.68,62.789,43.68,56C43.68,53.321,44.543,50.841,46.013,48.818L46.013,48.818z M81.363,29.071
			l1.54-0.009v11.862l-11.83,0.042l-0.046-11.862L81.363,29.071L81.363,29.071z M77.467,21H34.533C27.067,21,21,27.067,21,34.526
			v42.947C21,84.934,27.067,91,34.533,91h42.934C84.934,91,91,84.934,91,77.473V34.526C91,27.067,84.934,21,77.467,21L77.467,21z"/>
	</g>
</g>
</svg>
