<?xml version="1.0" encoding="utf-8"?>
<svg version="1.1" id="Layer_1" xmlns:sketch="http://www.bohemiancoding.com/sketch/ns"
	 xmlns="http://www.w3.org/2000/svg" xmlns:xlink="http://www.w3.org/1999/xlink" x="0px" y="0px" width="112px" height="113px"
	 viewBox="0 0 112 113" enable-background="new 0 0 112 113" xml:space="preserve">
<title>Instagram</title>
<desc>Created with Sketch.</desc>
<g id="Page-1" sketch:type="MSPage">
	<g id="Instagram" transform="translate(0.000000, 0.630510)" sketch:type="MSLayerGroup">
		<path id="Fill-1397" sketch:type="MSShapeGroup" fill="#906290" d="M112,56c0,30.9-25.1,56-56,56C25.1,112,0,86.9,0,56
			C0,25.1,25.1,0,56,0C86.9,0,112,25.1,112,56"/>
		<path id="Fill-1398" sketch:type="MSShapeGroup" fill="#FFFFFF" d="M84.2,77.5c0,3.7-3,6.7-6.7,6.7H34.5c-3.7,0-6.7-3-6.7-6.7
			V48.8h10.5c-0.9,2.2-1.4,4.6-1.4,7.2c0,10.6,8.6,19.1,19.1,19.1S75.1,66.6,75.1,56c0-2.5-0.5-5-1.4-7.2h10.5V77.5L84.2,77.5z
			 M46,48.8c2.2-3.1,5.9-5.1,10-5.1s7.7,2,10,5.1c1.5,2,2.3,4.5,2.3,7.2c0,6.8-5.5,12.3-12.3,12.3S43.7,62.8,43.7,56
			C43.7,53.3,44.5,50.8,46,48.8L46,48.8z M81.4,29.1l1.5,0v11.9l-11.8,0l0-11.9L81.4,29.1L81.4,29.1z M77.5,21H34.5
			C27.1,21,21,27.1,21,34.5v42.9C21,84.9,27.1,91,34.5,91h42.9C84.9,91,91,84.9,91,77.5V34.5C91,27.1,84.9,21,77.5,21L77.5,21z"/>
	</g>
</g>
</svg>
