<?xml version="1.0" encoding="UTF-8"?>
<svg width="112px" height="113px" viewBox="0 0 112 113" version="1.1" xmlns="http://www.w3.org/2000/svg" xmlns:xlink="http://www.w3.org/1999/xlink">
    <!-- Generator: Sketch 50.2 (55047) - http://www.bohemiancoding.com/sketch -->
    <title>instagram</title>
    <desc>Created with Sketch.</desc>
    <defs></defs>
    <g id="Page-1" stroke="none" stroke-width="1" fill="none" fill-rule="evenodd">
        <g id="instagram" transform="translate(0.000000, 0.630510)">
            <path d="M112,56 C112,86.926 86.9166667,112 56,112 C25.0833333,112 0,86.926 0,56 C0,25.0693333 25.0833333,0 56,0 C86.9166667,0 112,25.0693333 112,56" id="Fill-1397" fill="#906290"></path>
            <path d="M84.1866667,78.4736667 C84.1866667,82.1743333 81.1766667,85.182 77.4666667,85.182 L34.5333333,85.182 C30.8233333,85.182 27.8133333,82.1743333 27.8133333,78.4736667 L27.8133333,49.818 L38.2666667,49.818 C37.3566667,52.037 36.8666667,54.4613333 36.8666667,57 C36.8666667,67.5536667 45.4533333,76.1403333 56,76.1403333 C66.5466667,76.1403333 75.1333333,67.5536667 75.1333333,57 C75.1333333,54.4613333 74.62,52.037 73.7333333,49.818 L84.1866667,49.818 L84.1866667,78.4736667 L84.1866667,78.4736667 Z M46.0133333,49.818 C48.2533333,46.7146667 51.8933333,44.6823333 56,44.6823333 C60.1066667,44.6823333 63.7466667,46.7146667 65.9866667,49.818 C67.4566667,51.841 68.32,54.3213333 68.32,57 C68.32,63.79 62.79,69.3176667 56,69.3176667 C49.21,69.3176667 43.68,63.79 43.68,57 C43.68,54.3213333 44.5433333,51.841 46.0133333,49.818 L46.0133333,49.818 Z M81.3633333,30.071 L82.9033333,30.0616667 L82.9033333,41.9243333 L71.0733333,41.9663333 L71.0266667,30.1036667 L81.3633333,30.071 L81.3633333,30.071 Z M77.4666667,22 L34.5333333,22 C27.0666667,22 21,28.0666667 21,35.5263333 L21,78.4736667 C21,85.9333333 27.0666667,92 34.5333333,92 L77.4666667,92 C84.9333333,92 91,85.9333333 91,78.4736667 L91,35.5263333 C91,28.0666667 84.9333333,22 77.4666667,22 L77.4666667,22 Z" id="Fill-1398" fill="#FFFFFF"></path>
        </g>
    </g>
</svg>