<?xml version="1.0" encoding="utf-8"?>
<svg version="1.1" id="Layer_1" xmlns:sketch="http://www.bohemiancoding.com/sketch/ns"
	 xmlns="http://www.w3.org/2000/svg" xmlns:xlink="http://www.w3.org/1999/xlink" x="0px" y="0px" width="113px" height="113px"
	 viewBox="0 0 113 113" enable-background="new 0 0 113 113" xml:space="preserve">
<title>pinterest_hv</title>
<desc>Created with Sketch.</desc>
<g id="Page-1" sketch:type="MSPage">
	<g id="pinterest_hv" transform="translate(-0.500000, 0.046120)" sketch:type="MSLayerGroup">
		<path id="Fill-594" sketch:type="MSShapeGroup" fill="#B8242A" d="M63.174,70.475c-4.03,0-7.825-2.178-9.121-4.652
			c0,0-2.169,8.601-2.625,10.258c-1.621,5.875-6.378,11.745-6.744,12.221c-0.256,0.333-0.829,0.231-0.886-0.211
			c-0.105-0.748-1.32-8.15,0.11-14.191c0.719-3.03,4.806-20.341,4.806-20.341s-1.194-2.38-1.194-5.907
			c0-5.537,3.209-9.661,7.203-9.661c3.396,0,5.03,2.543,5.03,5.598c0,3.413-2.169,8.523-3.291,13.252
			c-0.938,3.96,1.983,7.191,5.891,7.191c7.073,0,11.839-9.088,11.839-19.854c0-8.182-5.51-14.309-15.535-14.309
			c-11.323,0-18.383,8.454-18.383,17.887c0,3.254,0.963,5.545,2.466,7.317c0.691,0.816,0.784,1.149,0.537,2.084
			c-0.183,0.683-0.589,2.34-0.764,2.994c-0.244,0.95-1.016,1.284-1.869,0.935c-5.216-2.125-7.646-7.841-7.646-14.268
			c0-10.6,8.946-23.319,26.687-23.319c14.256,0,23.636,10.315,23.636,21.394C83.319,59.53,75.174,70.475,63.174,70.475
			L63.174,70.475z M56.697,0c-30.926,0-56,25.074-56,56c0,30.933,25.074,56,56,56c30.926,0,56-25.067,56-56
			C112.697,25.074,87.623,0,56.697,0L56.697,0z"/>
	</g>
</g>
</svg>
