<?xml version="1.0" encoding="UTF-8" standalone="no"?>
<svg width="109px" height="113px" viewBox="0 0 109 113" version="1.1" xmlns="http://www.w3.org/2000/svg" xmlns:xlink="http://www.w3.org/1999/xlink" xmlns:sketch="http://www.bohemiancoding.com/sketch/ns">
    <!-- Generator: Sketch 3.3 (11970) - http://www.bohemiancoding.com/sketch -->
    <title>twitter_hv</title>
    <desc>Created with Sketch.</desc>
    <defs></defs>
    <g id="Page-1" stroke="none" stroke-width="1" fill="none" fill-rule="evenodd" sketch:type="MSPage">
        <g id="twitter_hv" sketch:type="MSLayerGroup" transform="translate(-2.500000, 0.815255)" fill="#39A0CE">
            <path d="M78.4407273,44.583 C78.4644848,45.0765 78.4746667,45.57 78.4746667,46.067 C78.4746667,61.25 67.2678788,78.757 46.7752727,78.757 C40.4829091,78.757 34.6283636,76.8565 29.6969697,73.5945 C30.5726061,73.6995 31.4584242,73.752 32.3544242,73.752 C37.577697,73.752 42.3767273,71.9215 46.1881212,68.838 C41.3178182,68.7435 37.2009697,65.422 35.785697,60.8615 C36.4644848,60.991 37.1602424,61.0645 37.8797576,61.0645 C38.8979394,61.0645 39.8821818,60.921 40.8121212,60.662 C35.7212121,59.6015 31.8792727,54.9605 31.8792727,49.3955 L31.8792727,49.252 C33.3827879,50.113 35.1001212,50.6275 36.9260606,50.6905 C33.936,48.6325 31.9709091,45.1115 31.9709091,41.125 C31.9709091,39.0215 32.5207273,37.044 33.4778182,35.35 C38.9692121,42.301 47.1825455,46.8755 56.4412121,47.3515 C56.2511515,46.5115 56.1527273,45.6365 56.1527273,44.7335 C56.1527273,38.3915 61.1418182,33.25 67.2950303,33.25 C70.4955152,33.25 73.3939394,34.6465 75.4269091,36.8725 C77.9621818,36.3615 80.3481212,35.4025 82.5032727,34.083 C81.6683636,36.771 79.9035152,39.0215 77.6024242,40.4425 C79.856,40.1695 82.0043636,39.5465 84,38.6365 C82.5100606,40.9395 80.6196364,42.9625 78.4407273,44.583 L78.4407273,44.583 Z M56.8484848,0 C26.8596364,0 2.54545455,25.074 2.54545455,56 C2.54545455,86.933 26.8596364,112 56.8484848,112 C86.8373333,112 111.151515,86.933 111.151515,56 C111.151515,25.074 86.8373333,0 56.8484848,0 L56.8484848,0 Z" id="twitter" sketch:type="MSShapeGroup"></path>
        </g>
    </g>
</svg>