<?xml version="1.0" encoding="UTF-8"?>
<svg width="112px" height="112px" viewBox="0 0 112 112" version="1.1" xmlns="http://www.w3.org/2000/svg" xmlns:xlink="http://www.w3.org/1999/xlink">
    <!-- Generator: Sketch 50.2 (55047) - http://www.bohemiancoding.com/sketch -->
    <title>instagram</title>
    <desc>Created with Sketch.</desc>
    <defs></defs>
    <g id="Page-1" stroke="none" stroke-width="1" fill="none" fill-rule="evenodd">
        <g id="instagram" transform="translate(0.000000, 0.630510)">
            <path d="M112,56 C112,86.926 86.9166667,112 56,112 C25.0833333,112 0,86.926 0,56 C0,25.0693333 25.0833333,0 56,0 C86.9166667,0 112,25.0693333 112,56" id="Fill-1397" fill="#906290"></path>
            <path d="M84.1866667,77.4736667 C84.1866667,81.1743333 81.1766667,84.182 77.4666667,84.182 L34.5333333,84.182 C30.8233333,84.182 27.8133333,81.1743333 27.8133333,77.4736667 L27.8133333,48.818 L38.2666667,48.818 C37.3566667,51.037 36.8666667,53.4613333 36.8666667,56 C36.8666667,66.5536667 45.4533333,75.1403333 56,75.1403333 C66.5466667,75.1403333 75.1333333,66.5536667 75.1333333,56 C75.1333333,53.4613333 74.62,51.037 73.7333333,48.818 L84.1866667,48.818 L84.1866667,77.4736667 L84.1866667,77.4736667 Z M46.0133333,48.818 C48.2533333,45.7146667 51.8933333,43.6823333 56,43.6823333 C60.1066667,43.6823333 63.7466667,45.7146667 65.9866667,48.818 C67.4566667,50.841 68.32,53.3213333 68.32,56 C68.32,62.79 62.79,68.3176667 56,68.3176667 C49.21,68.3176667 43.68,62.79 43.68,56 C43.68,53.3213333 44.5433333,50.841 46.0133333,48.818 L46.0133333,48.818 Z M81.3633333,29.071 L82.9033333,29.0616667 L82.9033333,40.9243333 L71.0733333,40.9663333 L71.0266667,29.1036667 L81.3633333,29.071 L81.3633333,29.071 Z M77.4666667,21 L34.5333333,21 C27.0666667,21 21,27.0666667 21,34.5263333 L21,77.4736667 C21,84.9333333 27.0666667,91 34.5333333,91 L77.4666667,91 C84.9333333,91 91,84.9333333 91,77.4736667 L91,34.5263333 C91,27.0666667 84.9333333,21 77.4666667,21 L77.4666667,21 Z" id="Fill-1398" fill="#FFFFFF"></path>
        </g>
    </g>
</svg>
