<?xml version="1.0" encoding="utf-8"?>
<svg version="1.1" id="Layer_1" xmlns:sketch="http://www.bohemiancoding.com/sketch/ns"
	 xmlns="http://www.w3.org/2000/svg" xmlns:xlink="http://www.w3.org/1999/xlink" x="0px" y="0px" width="110px" height="113px"
	 viewBox="0 0 110 113" enable-background="new 0 0 110 113" xml:space="preserve">
<title>twitter</title>
<desc>Created with Sketch.</desc>
<g id="Page-1" sketch:type="MSPage">
	<g id="twitter" transform="translate(0.000000, 0.815255)" sketch:type="MSLayerGroup">
		<path sketch:type="MSShapeGroup" fill="#906290" d="M76.4,44.6c0,0.5,0,1,0,1.5c0,15.2-11.2,32.7-31.7,32.7
			c-6.3,0-12.1-1.9-17.1-5.2c0.9,0.1,1.8,0.2,2.7,0.2c5.2,0,10-1.8,13.8-4.9c-4.9-0.1-9-3.4-10.4-8c0.7,0.1,1.4,0.2,2.1,0.2
			c1,0,2-0.1,2.9-0.4c-5.1-1.1-8.9-5.7-8.9-11.3v-0.1c1.5,0.9,3.2,1.4,5,1.4c-3-2.1-5-5.6-5-9.6c0-2.1,0.5-4.1,1.5-5.8
			c5.5,7,13.7,11.5,23,12c-0.2-0.8-0.3-1.7-0.3-2.6c0-6.3,5-11.5,11.1-11.5c3.2,0,6.1,1.4,8.1,3.6c2.5-0.5,4.9-1.5,7.1-2.8
			c-0.8,2.7-2.6,4.9-4.9,6.4c2.3-0.3,4.4-0.9,6.4-1.8C80.5,40.9,78.6,43,76.4,44.6L76.4,44.6z M54.8,0C24.9,0,0.5,25.1,0.5,56
			c0,30.9,24.3,56,54.3,56c30,0,54.3-25.1,54.3-56C109.2,25.1,84.8,0,54.8,0L54.8,0z"/>
	</g>
</g>
</svg>
